<mxfile host="app.diagrams.net" agent="Mozilla/5.0 (X11; Linux x86_64; rv:128.0) Gecko/20100101 Firefox/128.0" version="26.0.11">
  <diagram name="Page-1" id="6_ObI1XIqV3NZXVFBDLx">
    <mxGraphModel dx="2447" dy="890" grid="1" gridSize="10" guides="1" tooltips="1" connect="1" arrows="1" fold="1" page="1" pageScale="1" pageWidth="850" pageHeight="1100" math="0" shadow="0">
      <root>
        <mxCell id="0" />
        <mxCell id="1" parent="0" />
        <mxCell id="7GMIjj_CLMQ8buelcsM4-45" style="edgeStyle=orthogonalEdgeStyle;rounded=0;orthogonalLoop=1;jettySize=auto;html=1;exitX=1;exitY=0.5;exitDx=0;exitDy=0;entryX=0;entryY=0.5;entryDx=0;entryDy=0;fillColor=#f5f5f5;strokeColor=#666666;" parent="1" source="7GMIjj_CLMQ8buelcsM4-4" target="7GMIjj_CLMQ8buelcsM4-23" edge="1">
          <mxGeometry relative="1" as="geometry" />
        </mxCell>
        <mxCell id="7GMIjj_CLMQ8buelcsM4-4" value="Parameter Sets (.yaml | .py)" style="rounded=1;whiteSpace=wrap;html=1;fillColor=#f5f5f5;strokeColor=#666666;fontColor=#333333;" parent="1" vertex="1">
          <mxGeometry x="-400" y="460" width="120" height="40" as="geometry" />
        </mxCell>
        <mxCell id="7GMIjj_CLMQ8buelcsM4-7" value="&lt;div&gt;Behavioral&lt;/div&gt;&lt;div&gt;Model&lt;/div&gt;" style="rounded=1;whiteSpace=wrap;html=1;fillColor=#dae8fc;strokeColor=#6c8ebf;" parent="1" vertex="1">
          <mxGeometry x="-140" y="310" width="80" height="80" as="geometry" />
        </mxCell>
        <mxCell id="7GMIjj_CLMQ8buelcsM4-8" value="&lt;div&gt;Run SPICE!&lt;/div&gt;&lt;div&gt;e.g. ./tspice -f adcN.sp -i parameters.sp&lt;/div&gt;" style="rounded=1;whiteSpace=wrap;html=1;fillColor=#ffe6cc;strokeColor=#d79b00;" parent="1" vertex="1">
          <mxGeometry x="40" y="620" width="240" height="40" as="geometry" />
        </mxCell>
        <mxCell id="7GMIjj_CLMQ8buelcsM4-9" value="parameters.sp" style="rounded=1;whiteSpace=wrap;html=1;fillColor=#ffe6cc;strokeColor=#d79b00;" parent="1" vertex="1">
          <mxGeometry x="160" y="560" width="120" height="40" as="geometry" />
        </mxCell>
        <mxCell id="7GMIjj_CLMQ8buelcsM4-39" style="edgeStyle=orthogonalEdgeStyle;rounded=0;orthogonalLoop=1;jettySize=auto;html=1;exitX=1;exitY=0.5;exitDx=0;exitDy=0;entryX=0;entryY=0.5;entryDx=0;entryDy=0;fillColor=#f5f5f5;strokeColor=#666666;" parent="1" source="7GMIjj_CLMQ8buelcsM4-10" target="7GMIjj_CLMQ8buelcsM4-11" edge="1">
          <mxGeometry relative="1" as="geometry" />
        </mxCell>
        <mxCell id="7GMIjj_CLMQ8buelcsM4-10" value="Schematics (.oa)" style="rounded=1;whiteSpace=wrap;html=1;fillColor=#f5f5f5;strokeColor=#666666;fontColor=#333333;" parent="1" vertex="1">
          <mxGeometry x="-400" y="620" width="120" height="40" as="geometry" />
        </mxCell>
        <mxCell id="7GMIjj_CLMQ8buelcsM4-40" style="edgeStyle=orthogonalEdgeStyle;rounded=0;orthogonalLoop=1;jettySize=auto;html=1;exitX=1;exitY=0.5;exitDx=0;exitDy=0;entryX=0;entryY=0.5;entryDx=0;entryDy=0;fillColor=#f5f5f5;strokeColor=#666666;" parent="1" source="7GMIjj_CLMQ8buelcsM4-11" target="7GMIjj_CLMQ8buelcsM4-8" edge="1">
          <mxGeometry relative="1" as="geometry" />
        </mxCell>
        <mxCell id="7GMIjj_CLMQ8buelcsM4-11" value="adc8.sp, adc10.sp, ..., adc22.sp, adc24.sp" style="rounded=1;whiteSpace=wrap;html=1;fillColor=#f5f5f5;fontColor=#333333;strokeColor=#666666;" parent="1" vertex="1">
          <mxGeometry x="-240" y="620" width="240" height="40" as="geometry" />
        </mxCell>
        <mxCell id="7GMIjj_CLMQ8buelcsM4-14" value="" style="endArrow=classic;html=1;rounded=0;fillColor=#ffe6cc;strokeColor=#d79b00;" parent="1" edge="1">
          <mxGeometry width="50" height="50" relative="1" as="geometry">
            <mxPoint x="120" y="520" as="sourcePoint" />
            <mxPoint x="120" y="620" as="targetPoint" />
          </mxGeometry>
        </mxCell>
        <mxCell id="7GMIjj_CLMQ8buelcsM4-15" value="" style="endArrow=classic;html=1;rounded=0;fillColor=#ffe6cc;strokeColor=#d79b00;" parent="1" edge="1">
          <mxGeometry width="50" height="50" relative="1" as="geometry">
            <mxPoint x="120" y="540" as="sourcePoint" />
            <mxPoint x="220" y="560" as="targetPoint" />
            <Array as="points">
              <mxPoint x="220" y="540" />
            </Array>
          </mxGeometry>
        </mxCell>
        <mxCell id="7GMIjj_CLMQ8buelcsM4-16" value="" style="endArrow=classic;html=1;rounded=0;fillColor=#ffe6cc;strokeColor=#d79b00;" parent="1" edge="1">
          <mxGeometry width="50" height="50" relative="1" as="geometry">
            <mxPoint x="220" y="600" as="sourcePoint" />
            <mxPoint x="220" y="620" as="targetPoint" />
          </mxGeometry>
        </mxCell>
        <mxCell id="7GMIjj_CLMQ8buelcsM4-17" value="" style="endArrow=classic;html=1;rounded=0;entryX=0.5;entryY=1;entryDx=0;entryDy=0;exitX=1;exitY=0.5;exitDx=0;exitDy=0;fillColor=#ffe6cc;strokeColor=#d79b00;" parent="1" source="7GMIjj_CLMQ8buelcsM4-8" target="7GMIjj_CLMQ8buelcsM4-32" edge="1">
          <mxGeometry width="50" height="50" relative="1" as="geometry">
            <mxPoint x="280" y="680" as="sourcePoint" />
            <mxPoint x="320" y="440" as="targetPoint" />
            <Array as="points">
              <mxPoint x="320" y="640" />
            </Array>
          </mxGeometry>
        </mxCell>
        <mxCell id="7GMIjj_CLMQ8buelcsM4-50" style="edgeStyle=orthogonalEdgeStyle;rounded=0;orthogonalLoop=1;jettySize=auto;html=1;exitX=1;exitY=0.5;exitDx=0;exitDy=0;entryX=0;entryY=0.5;entryDx=0;entryDy=0;fillColor=#f5f5f5;strokeColor=#666666;" parent="1" source="7GMIjj_CLMQ8buelcsM4-21" target="7GMIjj_CLMQ8buelcsM4-35" edge="1">
          <mxGeometry relative="1" as="geometry" />
        </mxCell>
        <mxCell id="7GMIjj_CLMQ8buelcsM4-21" value="&lt;div&gt;Analyze non-linearity&lt;br&gt;&lt;/div&gt;&lt;div&gt;Analyze conversions&lt;br&gt;&lt;/div&gt;&lt;div&gt;...etc...&lt;br&gt;&lt;/div&gt;" style="rounded=1;whiteSpace=wrap;html=1;fillColor=#f5f5f5;fontColor=#333333;strokeColor=#666666;" parent="1" vertex="1">
          <mxGeometry x="120" y="320" width="200" height="60" as="geometry" />
        </mxCell>
        <mxCell id="7GMIjj_CLMQ8buelcsM4-23" value="Covert ADC params to run cases " style="rounded=1;whiteSpace=wrap;html=1;fillColor=#f5f5f5;fontColor=#333333;strokeColor=#666666;" parent="1" vertex="1">
          <mxGeometry x="-240" y="460" width="120" height="40" as="geometry" />
        </mxCell>
        <mxCell id="7GMIjj_CLMQ8buelcsM4-25" value="affiliated&lt;br&gt;&lt;div&gt;.raw exists?&lt;/div&gt;" style="rhombus;whiteSpace=wrap;html=1;fillColor=#ffe6cc;strokeColor=#d79b00;" parent="1" vertex="1">
          <mxGeometry x="80" y="440" width="80" height="80" as="geometry" />
        </mxCell>
        <mxCell id="7GMIjj_CLMQ8buelcsM4-27" value="&lt;div&gt;no&lt;/div&gt;" style="text;html=1;align=center;verticalAlign=middle;resizable=0;points=[];autosize=1;strokeColor=none;fillColor=none;" parent="1" vertex="1">
          <mxGeometry x="112" y="510" width="40" height="30" as="geometry" />
        </mxCell>
        <mxCell id="7GMIjj_CLMQ8buelcsM4-28" value="yes" style="text;html=1;align=center;verticalAlign=middle;resizable=0;points=[];autosize=1;strokeColor=none;fillColor=none;" parent="1" vertex="1">
          <mxGeometry x="153" y="456" width="40" height="30" as="geometry" />
        </mxCell>
        <mxCell id="7GMIjj_CLMQ8buelcsM4-31" value="" style="endArrow=none;html=1;rounded=0;exitX=1;exitY=0.5;exitDx=0;exitDy=0;fillColor=#ffe6cc;strokeColor=#d79b00;" parent="1" source="7GMIjj_CLMQ8buelcsM4-25" edge="1">
          <mxGeometry width="50" height="50" relative="1" as="geometry">
            <mxPoint x="200" y="538" as="sourcePoint" />
            <mxPoint x="320" y="480" as="targetPoint" />
          </mxGeometry>
        </mxCell>
        <mxCell id="7GMIjj_CLMQ8buelcsM4-32" value="Parse .raw to database" style="rounded=1;whiteSpace=wrap;html=1;fillColor=#ffe6cc;strokeColor=#d79b00;" parent="1" vertex="1">
          <mxGeometry x="260" y="420" width="120" height="40" as="geometry" />
        </mxCell>
        <mxCell id="7GMIjj_CLMQ8buelcsM4-35" value="&lt;div&gt;Plot non-linearity&lt;/div&gt;&lt;div&gt;Plot conversions&lt;/div&gt;&lt;div&gt;...etc...&lt;br&gt;&lt;/div&gt;" style="rounded=1;whiteSpace=wrap;html=1;fillColor=#f5f5f5;fontColor=#333333;strokeColor=#666666;" parent="1" vertex="1">
          <mxGeometry x="340" y="320" width="200" height="60" as="geometry" />
        </mxCell>
        <mxCell id="7GMIjj_CLMQ8buelcsM4-44" value="" style="endArrow=classic;html=1;rounded=0;entryX=0;entryY=0.5;entryDx=0;entryDy=0;fillColor=#ffe6cc;strokeColor=#d79b00;" parent="1" target="7GMIjj_CLMQ8buelcsM4-25" edge="1">
          <mxGeometry width="50" height="50" relative="1" as="geometry">
            <mxPoint x="-100" y="480" as="sourcePoint" />
            <mxPoint x="-40" y="320" as="targetPoint" />
            <Array as="points">
              <mxPoint y="480" />
              <mxPoint x="40" y="480" />
            </Array>
          </mxGeometry>
        </mxCell>
        <mxCell id="7GMIjj_CLMQ8buelcsM4-53" value="Done!" style="text;html=1;align=center;verticalAlign=middle;resizable=0;points=[];autosize=1;strokeColor=#666666;fillColor=#f5f5f5;fontColor=#333333;" parent="1" vertex="1">
          <mxGeometry x="560" y="335" width="60" height="30" as="geometry" />
        </mxCell>
        <mxCell id="4WMrAPWrjYJnHecJvMj1-3" value="" style="endArrow=none;html=1;rounded=0;exitX=1;exitY=0.5;exitDx=0;exitDy=0;fillColor=#f5f5f5;strokeColor=#666666;" edge="1" parent="1">
          <mxGeometry width="50" height="50" relative="1" as="geometry">
            <mxPoint x="-120" y="480" as="sourcePoint" />
            <mxPoint x="-100" y="480" as="targetPoint" />
          </mxGeometry>
        </mxCell>
        <mxCell id="4WMrAPWrjYJnHecJvMj1-4" value="" style="endArrow=classic;html=1;rounded=0;entryX=0.5;entryY=1;entryDx=0;entryDy=0;fillColor=#dae8fc;strokeColor=#6c8ebf;" edge="1" parent="1" target="7GMIjj_CLMQ8buelcsM4-7">
          <mxGeometry width="50" height="50" relative="1" as="geometry">
            <mxPoint x="-100" y="480" as="sourcePoint" />
            <mxPoint x="-140" y="460" as="targetPoint" />
            <Array as="points">
              <mxPoint x="-100" y="420" />
            </Array>
          </mxGeometry>
        </mxCell>
        <mxCell id="4WMrAPWrjYJnHecJvMj1-5" value="" style="endArrow=none;html=1;rounded=0;fillColor=#dae8fc;strokeColor=#6c8ebf;entryX=1;entryY=0.5;entryDx=0;entryDy=0;" edge="1" parent="1" target="4WMrAPWrjYJnHecJvMj1-13">
          <mxGeometry width="50" height="50" relative="1" as="geometry">
            <mxPoint x="100" y="350" as="sourcePoint" />
            <mxPoint x="60" y="440" as="targetPoint" />
            <Array as="points">
              <mxPoint x="60" y="350" />
            </Array>
          </mxGeometry>
        </mxCell>
        <mxCell id="4WMrAPWrjYJnHecJvMj1-6" value="" style="endArrow=none;html=1;rounded=0;fillColor=#ffe6cc;strokeColor=#d79b00;entryX=0.5;entryY=0;entryDx=0;entryDy=0;" edge="1" parent="1" target="7GMIjj_CLMQ8buelcsM4-32">
          <mxGeometry width="50" height="50" relative="1" as="geometry">
            <mxPoint x="100" y="350" as="sourcePoint" />
            <mxPoint x="320" y="360" as="targetPoint" />
            <Array as="points">
              <mxPoint x="100" y="370" />
              <mxPoint x="100" y="400" />
              <mxPoint x="180" y="400" />
              <mxPoint x="320" y="400" />
            </Array>
          </mxGeometry>
        </mxCell>
        <mxCell id="4WMrAPWrjYJnHecJvMj1-7" value="" style="endArrow=classic;html=1;rounded=0;entryX=0;entryY=0.5;entryDx=0;entryDy=0;fillColor=#f5f5f5;strokeColor=#666666;" edge="1" parent="1" target="7GMIjj_CLMQ8buelcsM4-21">
          <mxGeometry width="50" height="50" relative="1" as="geometry">
            <mxPoint x="100" y="350" as="sourcePoint" />
            <mxPoint x="150" y="300" as="targetPoint" />
          </mxGeometry>
        </mxCell>
        <mxCell id="4WMrAPWrjYJnHecJvMj1-11" style="edgeStyle=orthogonalEdgeStyle;rounded=0;orthogonalLoop=1;jettySize=auto;html=1;exitX=1;exitY=0.5;exitDx=0;exitDy=0;entryX=0;entryY=0.5;entryDx=0;entryDy=0;entryPerimeter=0;fillColor=#f5f5f5;strokeColor=#666666;" edge="1" parent="1" source="7GMIjj_CLMQ8buelcsM4-35" target="7GMIjj_CLMQ8buelcsM4-53">
          <mxGeometry relative="1" as="geometry" />
        </mxCell>
        <mxCell id="4WMrAPWrjYJnHecJvMj1-12" style="edgeStyle=orthogonalEdgeStyle;rounded=0;orthogonalLoop=1;jettySize=auto;html=1;exitX=1;exitY=0.5;exitDx=0;exitDy=0;entryX=0;entryY=0.379;entryDx=0;entryDy=0;entryPerimeter=0;fillColor=#dae8fc;strokeColor=#6c8ebf;" edge="1" parent="1" source="7GMIjj_CLMQ8buelcsM4-7">
          <mxGeometry relative="1" as="geometry">
            <mxPoint x="-40" y="350.15999999999997" as="targetPoint" />
          </mxGeometry>
        </mxCell>
        <mxCell id="4WMrAPWrjYJnHecJvMj1-13" value="Log to database" style="rounded=1;whiteSpace=wrap;html=1;fillColor=#dae8fc;strokeColor=#6c8ebf;" vertex="1" parent="1">
          <mxGeometry x="-40" y="330" width="120" height="40" as="geometry" />
        </mxCell>
        <mxCell id="4WMrAPWrjYJnHecJvMj1-14" value="output.raw" style="text;html=1;align=center;verticalAlign=middle;resizable=0;points=[];autosize=1;strokeColor=none;fillColor=none;" vertex="1" parent="1">
          <mxGeometry x="273" y="634" width="80" height="30" as="geometry" />
        </mxCell>
      </root>
    </mxGraphModel>
  </diagram>
</mxfile>
